<?xml version="1.0" ?><svg enable-background="new -205.082 45.448 479.052 475.063" id="Layer_1" version="1.1" viewBox="-205.082 45.448 479.052 475.063" xml:space="preserve" xmlns="http://www.w3.org/2000/svg" xmlns:xlink="http://www.w3.org/1999/xlink"><g id="Layer_1_1_"/><g><path d="M273.832,293.584c-0.275-5.854-1.024-11.586-1.75-17.13l-0.286-2.198c-0.981-7.591-1.881-13.435-2.914-18.948   c-1.08-5.763-2.305-12.294-3.721-18.666c-0.662-2.978-2.636-5.457-5.313-6.787c-0.346-3.084-0.849-6.209-1.646-9.369   c-2.043-8.1-4.564-14.395-7.935-19.812c-3.546-5.697-8.565-10.665-15.798-15.634c-0.039-0.026-0.077-0.052-0.116-0.078   c-7.803-5.202-15.341-6.984-21.686-8.042c-0.337-0.057-0.678-0.095-1.02-0.117c-1.521-0.095-3.035-0.195-4.542-0.295   c-3.712-0.246-7.549-0.5-11.334-0.663c-3.996-0.173-7.838-0.02-11.553,0.127c-1.595,0.063-3.19,0.127-4.79,0.162   c-0.893,0.02-1.791,0.035-2.695,0.05c-4.549,0.077-9.252,0.156-14.152,0.769c-3.22,0.403-6.045,2.343-7.576,5.205   c-1.53,2.861-1.578,6.288-0.127,9.19c0.319,0.639,0.217,2.411,0.118,4.125c-0.052,0.89-0.109,1.881-0.126,2.926   c-0.575,5.279-1.006,10.954-1.353,17.8c-0.112,2.214-0.184,4.425-0.254,6.635c-0.118,3.723-0.23,7.24-0.542,10.722   c-0.479,5.34-1.663,10.938-2.834,16.213c-0.056,0.25-0.102,0.501-0.138,0.754c-0.092,0.639-0.18,1.287-0.269,1.94   c-0.688,5.067-1.338,9.853-3.824,11.926c-0.232,0.193-0.456,0.397-0.67,0.611c-1.627,1.627-2.673,3.55-3.127,5.761   c-2.835,3.326-6.678,5.928-11.04,8.883c-1.421,0.962-2.887,1.955-4.376,3.012c-6.577,4.063-12.254,5.566-18.374,4.892   c-0.367-0.041-0.735-0.062-1.104-0.062c-3.104,0-6.226-0.159-9.53-0.328c-2.342-0.119-4.764-0.243-7.213-0.308   c-2.274-0.059-4.55-0.084-6.823-0.108c-3.464-0.037-6.735-0.072-10.001-0.228c-2.855-0.136-5.742-0.421-8.799-0.724   c-2.599-0.257-5.286-0.522-8.022-0.696c-5.491-0.35-11.169-0.711-16.887-1.138c-2.751-0.204-5.508-0.515-8.426-0.842   c-2.745-0.309-5.584-0.627-8.469-0.858c-3.015-0.24-5.991-0.355-8.87-0.468c-2.828-0.11-5.5-0.214-8.145-0.426   c-3.11-0.249-6.176-0.376-9.14-0.5c-2.723-0.113-5.295-0.22-7.872-0.414c-0.822-0.06-1.649-0.021-2.46,0.12   c-5.481,0.953-12.664,2.53-19.606,6.292c-6.185,3.353-11.704,7.462-16.405,12.215c-4.886,4.94-8.957,10.526-12.101,16.605   c-3.215,6.221-5.313,12.922-6.235,19.921c-0.532,3.638-0.864,7.22-1.185,10.685c-0.208,2.25-0.405,4.374-0.651,6.495   c-0.256,2.206-0.611,4.439-0.986,6.804c-0.532,3.353-1.083,6.819-1.379,10.438c-0.301,3.673-0.299,7.213-0.297,10.637   c0.001,2.372,0.002,4.613-0.095,6.8c-0.095,2.151-0.282,4.336-0.479,6.65c-0.295,3.467-0.601,7.052-0.614,10.786   c-0.014,3.915,0.233,7.719,0.471,11.397c0.137,2.107,0.266,4.099,0.347,6.087c0.235,5.781,0.598,11.516,1.08,17.052   c0.012,3.236,0.186,6.331,1.617,10.622c0.033,0.099,0.067,0.196,0.103,0.294c0.028,0.714-0.296,2.472-0.514,3.657   c-0.591,3.211-1.327,7.208-0.579,11.692c0.011,0.067,0.022,0.133,0.035,0.199c1.159,6.182,3.524,12.093,7.029,17.569   c3.844,6.011,8.945,10.26,12.96,13.29c4.319,3.26,9.391,5.87,15.962,8.217c0.088,0.031,0.177,0.062,0.266,0.091   c1.876,0.61,3.741,1.27,5.716,1.967c3.448,1.219,7.014,2.479,10.773,3.515c5.337,1.471,11.083,3.008,16.938,4.285   c4.644,1.013,9.246,1.689,13.696,2.344c1.208,0.178,2.416,0.354,3.621,0.539c1.17,0.179,2.338,0.363,3.506,0.549   c4.51,0.715,9.174,1.455,13.989,1.833c4.394,0.344,8.729,0.413,12.971,0.413c1.422,0,2.833-0.008,4.231-0.016l0.553-0.003   c6.29-0.034,12.527-0.572,17.801-1.094l2.396-0.232c4.975-0.479,10.118-0.974,15.387-2.044c7.068-1.437,12.461-2.79,17.482-4.388   c0.495-0.157,0.977-0.353,1.44-0.585c1.719-0.859,3.188-1.736,4.484-2.511c1.811-1.081,3.118-1.862,4.302-2.158   c0.707-0.177,1.394-0.431,2.046-0.757c5.785-2.893,12.44-6.556,17.942-11.794c5.729-5.456,10.115-12.132,12.685-19.309   c2.148-6.001,2.891-11.977,2.226-17.837c2.872-3.639,4.434-8.381,4.434-13.787c0-3.899,0-15.764-10.592-22.119   c-2.991-1.795-6.619-1.867-9.612-0.372c-0.608-0.073-1.312-0.146-2.092-0.166c-3.036-0.191-6.14-0.431-9.143-0.662   c-3.142-0.242-6.391-0.493-9.616-0.692c-3.426-0.212-6.845-0.343-10.15-0.47c-3.068-0.117-5.967-0.228-8.893-0.398   c-2.871-0.167-5.727-0.421-8.75-0.69c-3.338-0.297-6.789-0.604-10.285-0.786c-4.031-0.21-8.103-0.363-12.039-0.511   c-2.353-0.089-4.707-0.178-7.063-0.278c-1.785-0.076-3.575-0.159-5.368-0.243c0.378-1.915,0.647-3.755,0.862-5.454   c0.333-2.622,0.527-5.256,0.716-7.804c0.009-0.122,0.018-0.244,0.027-0.365c3.125,0.131,6.237,0.286,9.247,0.494   c3.627,0.252,7.226,0.629,11.037,1.028c2.427,0.254,4.854,0.508,7.28,0.729c2.698,0.245,5.4,0.459,8.101,0.672   c3.415,0.27,6.945,0.548,10.356,0.889c2.696,0.27,5.469,0.749,8.404,1.257c3.228,0.558,6.564,1.135,10.057,1.473   c3.839,0.37,7.678,0.63,11.39,0.88c2.444,0.165,4.888,0.33,7.328,0.526c4.06,0.327,8.081,0.467,11.97,0.603   c2.302,0.08,4.603,0.16,6.902,0.279c1.323,0.069,2.646,0.142,3.969,0.215c4.885,0.27,9.936,0.549,15.025,0.604   c6.437,0.071,12.744,0.111,19.137-0.158c6.509-0.276,12.971-0.755,19.205-1.423c0.301-0.032,0.6-0.078,0.896-0.138   c6.213-1.242,12.353-3.666,18.249-7.204c5.802-3.481,9.554-8.283,13.183-12.928c0.583-0.747,1.174-1.504,1.782-2.264   c0.226-0.281,0.435-0.575,0.628-0.879c3.731-5.864,7.228-11.602,10.155-16.441c3.119-5.158,5.92-10.84,9.08-18.424   c0.063-0.148,0.12-0.299,0.175-0.45c2.412-6.68,3.862-13.266,5.069-19.388c0.213-1.08,0.434-2.157,0.653-3.233   c1.07-5.241,2.178-10.66,2.531-16.418C273.841,307.48,274.161,300.601,273.832,293.584z M253.521,312.06   c-0.268,4.357-1.188,8.867-2.164,13.642c-0.229,1.12-0.457,2.242-0.679,3.365c-1.041,5.275-2.268,10.889-4.18,16.244   c-2.722,6.514-5.082,11.313-7.637,15.537c-2.794,4.62-6.113,10.067-9.632,15.61c-0.536,0.675-1.062,1.348-1.581,2.012   c-2.733,3.499-5.094,6.521-7.711,8.091c-3.788,2.272-7.643,3.838-11.464,4.656c-5.662,0.597-11.528,1.025-17.441,1.276   c-5.9,0.249-11.915,0.209-18.073,0.143c-4.647-0.052-9.259-0.307-14.142-0.576c-1.345-0.074-2.689-0.148-4.033-0.218   c-2.412-0.126-4.828-0.21-7.244-0.295c-3.834-0.133-7.455-0.26-11.06-0.55c-2.526-0.203-5.057-0.375-7.588-0.545   c-3.735-0.253-7.263-0.49-10.814-0.834c-2.745-0.265-5.575-0.754-8.57-1.272c-3.153-0.545-6.414-1.108-9.824-1.449   c-3.618-0.361-7.254-0.648-10.771-0.926c-2.622-0.208-5.245-0.414-7.865-0.652c-2.337-0.212-4.671-0.457-7.007-0.701   c-3.814-0.4-7.759-0.813-11.737-1.09c-5.78-0.399-11.728-0.61-17.479-0.813l-1.721-0.061c-4.974-0.196-9.309,3.317-10.196,8.206   c-0.664,3.657-0.94,7.399-1.208,11.02c-0.177,2.395-0.344,4.656-0.611,6.76c-0.485,3.832-1.315,8.642-3.446,11.837   c-2.015,3.022-2.233,6.899-0.569,10.129c1.664,3.229,4.948,5.301,8.579,5.414c4.147,0.129,8.393,0.329,12.498,0.521   c2.147,0.102,4.291,0.202,6.43,0.294c2.392,0.102,4.781,0.191,7.168,0.281c3.865,0.146,7.863,0.296,11.75,0.498   c3.129,0.163,6.248,0.44,9.552,0.735c3.04,0.271,6.184,0.55,9.359,0.735c3.127,0.182,6.261,0.302,9.293,0.417   c3.19,0.122,6.489,0.248,9.678,0.445c3.073,0.191,6.246,0.436,9.314,0.672c3.151,0.243,6.411,0.495,9.67,0.697   c0.155,0.01,0.311,0.016,0.466,0.019c0.18,0.016,0.368,0.043,0.563,0.067c0.542,0.067,1.288,0.161,2.177,0.205   c0.063,0.654,0.102,1.446,0.102,2.391c0,0.619-0.076,1.046-0.142,1.285c-4.146,2.25-6.17,7.113-4.805,11.662   c1.161,3.866,0.988,7.659-0.543,11.938c-1.521,4.251-4.166,8.25-7.646,11.563c-3.366,3.204-7.833,5.727-12.247,7.963   c-3.456,1.043-6.124,2.637-8.506,4.059c-0.866,0.518-1.694,1.013-2.523,1.456c-4.105,1.269-8.658,2.39-14.614,3.6   c-4.241,0.862-8.649,1.286-13.316,1.735l-2.454,0.238c-5.054,0.5-10.482,0.967-15.936,0.996l-0.555,0.003   c-5.396,0.031-10.499,0.059-15.529-0.337c-4.026-0.315-8.104-0.962-12.42-1.646c-1.206-0.191-2.412-0.383-3.62-0.567   c-1.242-0.189-2.485-0.372-3.73-0.555c-4.305-0.634-8.372-1.231-12.344-2.098c-5.39-1.175-10.82-2.629-15.886-4.025   c-3.077-0.848-6.16-1.938-9.425-3.091c-1.959-0.692-3.983-1.407-6.047-2.081c-4.54-1.631-7.882-3.315-10.51-5.299   c-3.982-3.006-6.499-5.505-8.162-8.105c-2.091-3.267-3.501-6.747-4.194-10.346c-0.145-1.041,0.199-2.908,0.532-4.717   c0.688-3.74,1.625-8.832-0.35-14.094c-0.477-1.477-0.526-2.239-0.526-4.545c0-0.293-0.013-0.586-0.039-0.878   c-0.472-5.358-0.828-10.924-1.057-16.545c-0.091-2.229-0.234-4.433-0.373-6.564c-0.227-3.497-0.44-6.801-0.429-10.033   c0.01-2.92,0.269-5.95,0.542-9.158c0.206-2.412,0.418-4.905,0.531-7.461c0.117-2.635,0.116-5.208,0.115-7.697   c-0.001-3.158-0.003-6.142,0.231-8.995c0.234-2.862,0.703-5.812,1.198-8.933c0.391-2.464,0.796-5.012,1.1-7.633   c0.273-2.353,0.49-4.694,0.7-6.959c0.313-3.375,0.608-6.563,1.069-9.696c0.008-0.055,0.016-0.109,0.022-0.164   c0.606-4.652,2.052-9.287,4.18-13.402c2.182-4.221,5.14-8.275,8.554-11.728c3.271-3.308,7.323-6.314,11.716-8.696   c3.196-1.732,7.034-2.968,12.333-3.961c2.464,0.163,4.888,0.264,7.244,0.361c2.903,0.121,5.646,0.235,8.373,0.453   c3.054,0.245,6.059,0.362,8.965,0.476c2.802,0.108,5.448,0.212,8.055,0.419c2.563,0.205,5.12,0.492,7.828,0.797   c2.974,0.334,6.049,0.68,9.172,0.912c5.825,0.435,11.817,0.815,17.102,1.151c2.388,0.152,4.787,0.39,7.327,0.641   c3.172,0.313,6.452,0.638,9.815,0.797c3.633,0.173,7.243,0.212,10.734,0.25c2.174,0.023,4.348,0.047,6.52,0.103   c2.197,0.059,4.392,0.17,6.714,0.289c3.242,0.165,6.589,0.336,10.017,0.353c10.477,1.032,20.574-1.595,30.856-8.021   c0.175-0.108,0.346-0.223,0.513-0.342c1.378-0.984,2.765-1.924,4.232-2.918c5.896-3.992,11.989-8.119,16.92-14.832   c1.05-1.256,1.79-2.668,2.217-4.235c6.066-6.788,7.242-15.45,8.129-21.983c0.065-0.481,0.13-0.958,0.196-1.431   c1.286-5.805,2.572-11.994,3.146-18.384c0.363-4.056,0.489-8.027,0.612-11.867c0.066-2.086,0.133-4.172,0.238-6.261   c0.337-6.659,0.754-12.097,1.312-17.115c0.041-0.367,0.062-0.736,0.062-1.105c0-0.686,0.047-1.5,0.097-2.363   c0.008-0.135,0.017-0.271,0.024-0.41c0.688-0.013,1.384-0.025,2.085-0.037c0.938-0.016,1.871-0.032,2.796-0.052   c1.717-0.038,3.431-0.105,5.144-0.173c3.462-0.136,6.731-0.265,9.9-0.13c3.554,0.153,7.108,0.389,10.872,0.638   c1.356,0.09,2.719,0.18,4.087,0.267c4.924,0.849,9.106,2.031,13.331,4.833c4.849,3.338,8.055,6.415,10.085,9.677   c2.245,3.608,4,8.101,5.522,14.137c1.226,4.854,1.521,10.192,1.835,15.844l0.02,0.351c0.223,4.009,2.821,7.497,6.601,8.855   c0.117,0.042,0.234,0.082,0.353,0.12c0.568,2.908,1.104,5.761,1.605,8.443c0.962,5.128,1.806,10.627,2.737,17.828l0.29,2.226   c0.703,5.375,1.367,10.453,1.603,15.475C254.139,300.584,253.846,306.789,253.521,312.06z"/><path d="M89.999,487.118c10.768,0,15.704-9.095,17.942-14.3c1.637-1.796,3.678-4.66,3.678-8.665c0-1.553-0.361-3.084-1.056-4.472   c-2.669-5.338-7.899-9.335-13.891-10.917c-1.852-1.299-4.167-2.039-6.765-2.039c-1.272,0-2.532,0.243-3.714,0.715   c-7.759,3.104-13.403,8.603-16.323,15.901c-0.072,0.182-0.14,0.366-0.202,0.552c-1.63,4.89-0.816,10.12,2.231,14.348   C76.319,484.373,84.175,487.118,89.999,487.118z"/><path d="M-70.668,290.687c4.084-3.469,8.255-6.184,12.397-8.071c5.124-2.334,9.708-3.748,14.011-4.322   c3.869-0.517,8.391-0.28,14.659,0.764c1.537,0.256,3.082,0.146,4.522-0.288c2.632,0.23,5.333,0.453,8.067,0.592   c3.232,0.164,6.37,0.13,9.402,0.096c2.853-0.031,5.546-0.061,8.156,0.071c2.81,0.142,5.642,0.414,8.64,0.701   c2.846,0.272,5.79,0.555,8.786,0.726c2.76,0.158,5.506,0.243,8.161,0.326c3.204,0.099,6.23,0.193,9.243,0.404   c3.258,0.228,6.503,0.574,9.938,0.939c2.443,0.261,4.887,0.52,7.334,0.737c3.768,0.336,7.489,0.789,11.43,1.27   c1.732,0.212,3.466,0.423,5.203,0.624c5.595,1.128,10.084-0.852,12.815-2.058c0.786-0.347,1.532-0.676,2.074-0.838   c7.409-1.468,14.288-4.129,20.448-7.913c6.293-3.864,11.881-8.759,16.612-14.552c4.188-5.132,8.851-11.367,11.676-18.691   c2.015-5.227,3.229-11.067,3.757-18.16c3.739-5.382,3.629-11.978,3.558-16.276c-0.007-0.396-0.014-0.79-0.018-1.178   c0.504-4.339,0.615-8.52,0.724-12.569c0.058-2.169,0.113-4.219,0.225-6.246c0.109-1.969,0.239-3.933,0.369-5.893   c0.286-4.318,0.582-8.783,0.653-13.291c0.057-3.562,0.033-7.115,0.01-10.551c-0.018-2.786-0.037-5.569-0.012-8.35   c0.031-3.601,0.229-7.201,0.438-11.012c0.135-2.453,0.274-4.988,0.365-7.531c0.242-6.785,0.617-12.735,1.146-18.189   c0.093-0.956,0.047-1.921-0.136-2.864c-1.416-7.317-3.83-14.069-7.175-20.066c-3.552-6.366-7.846-12.012-12.764-16.781   c-5.229-5.07-11.407-8.907-16.763-11.992c-5.21-3-11.47-6.364-18.402-8.562c-5.989-1.899-12.669-3.227-19.819-3.942   c-5.56-0.575-11.056-0.988-16.37-1.387l-0.89-0.067c-3.78-0.285-7.451-0.332-11.002-0.377c-2.215-0.028-4.308-0.055-6.39-0.137   c-5.744-0.221-11.302-0.216-17.447-0.188c-1.941,0.007-3.887-0.03-5.949-0.071c-3.723-0.074-7.573-0.15-11.566,0.061l-2.657,0.137   c-4.806,0.245-9.775,0.498-14.851,1.022c-0.047,0.005-0.094,0.01-0.14,0.016c-5.707,0.671-11.782,1.755-18.058,3.223   c-5.481,1.282-11.19,3.275-17.971,6.273c-6.493,2.873-12.015,6.128-16.881,9.952c-0.313,0.246-0.611,0.511-0.893,0.792   c-6.797,6.797-11.42,14.074-14.99,23.593c-0.227,0.605-0.395,1.23-0.5,1.867c-0.203,1.214-0.489,2.507-0.793,3.875   c-1.145,5.154-2.564,11.552-0.052,18.097c0.779,2.21,1.94,4.148,3.065,6.025c0.593,0.989,1.353,2.256,1.772,3.173   c0.006,0.329,0.011,0.701,0.01,1.056c-3.227,2.209-4.933,6.168-4.167,10.142c0.906,4.707,5.026,8.109,9.819,8.109   c2.126,0,4.242-0.036,6.36-0.072c3.675-0.062,7.146-0.123,10.652,0.009c5.871,0.222,11.765,0.577,17.259,0.928   c2.816,0.18,5.693,0.55,8.74,0.941c2.76,0.354,5.614,0.722,8.542,0.956c3.327,0.267,6.723,0.589,10.008,0.9   c2.471,0.234,4.933,0.468,7.421,0.684c3.368,0.281,6.517,0.286,9.562,0.291c2.689,0.004,5.229,0.008,7.564,0.213   c2.748,0.24,5.545,0.654,8.537,1.27c0.287,2.702,0.563,5.445,0.754,8.122c0.094,1.314,0.153,2.614,0.19,3.914   c-2.765-0.116-5.404-0.238-8.046-0.482c-2.857-0.264-5.759-0.707-8.832-1.175c-3.326-0.507-6.765-1.031-10.324-1.348   c-3.584-0.318-7.183-0.563-10.663-0.8c-2.874-0.195-5.747-0.39-8.617-0.627c-3.598-0.296-7.167-0.45-10.617-0.598   c-3.016-0.129-5.865-0.252-8.711-0.461c-2.751-0.204-5.597-0.472-8.348-0.731c-3.566-0.336-7.253-0.684-10.965-0.916   c-0.208-0.013-0.416-0.02-0.625-0.02h-0.257c-6.59-0.005-12.81,0-19.007-0.482c-2.604-0.203-5.208-0.494-7.966-0.802   c-3.977-0.445-8.089-0.905-12.313-1.093c-7.055-0.313-13.971-0.538-20.987,0.123c-6.297,0.063-12.468,1.286-18.351,3.64   c-0.117,0.046-0.232,0.095-0.347,0.146c-5.507,2.447-10.424,5.525-14.092,7.933c-4.512,2.961-8.054,6.517-11.479,9.955   l-0.911,0.913c-0.157,0.157-0.308,0.319-0.454,0.486c-1.203,1.375-2.489,2.733-3.849,4.171c-2.446,2.585-4.975,5.257-7.344,8.364   c-3.482,4.567-6.57,9.577-9.438,15.316c-0.515,1.03-1.124,2.283-1.733,3.536c-0.574,1.181-1.147,2.362-1.633,3.333   c-0.427,0.854-0.73,1.766-0.898,2.707c-0.958,5.342-1.633,10.604-2.286,15.691c-0.152,1.186-0.304,2.368-0.458,3.546   c-0.266,2.03-0.567,4.049-0.866,6.062c-0.638,4.299-1.298,8.745-1.643,13.282c-0.491,6.47-0.615,12.685-0.717,19.556   c-0.085,5.746-0.125,12.57,0.23,19.611c0.244,4.841,0.864,9.555,1.462,14.114c0.236,1.792,0.472,3.587,0.684,5.387   c0.809,6.88,1.743,13.172,2.856,19.232c1.238,7.905,3.993,14.408,6.791,20.261c2.549,5.334,5.656,10.835,9.775,17.311   c0.039,0.061,0.077,0.12,0.117,0.18c1.589,2.385,3.262,4.01,4.605,5.315c0.953,0.926,1.511,1.479,1.903,2.065   c0.365,0.548,0.784,1.059,1.249,1.524c5.635,5.635,12.653,10.202,19.763,12.863c4.617,1.727,9.54,2.596,14.572,2.596   c3.167,0,6.379-0.345,9.583-1.036c4.987-0.497,9.177-0.899,13.23-1.234c3.597-0.295,7.181-0.288,10.979-0.273h0.247   c2.321,0.764,4.184,0.792,5.908,0.734c0.217-0.007,0.456-0.016,0.73-0.016c2.899,0,5.655-1.258,7.555-3.448   c1.899-2.189,2.755-5.097,2.345-7.966c-0.826-5.783-0.821-11.72-0.815-18.003l0.001-1.534c0-5.894,0.504-12.286,1.541-19.543   c0.067-0.469,0.101-0.94,0.101-1.414c0-0.104,0.001-0.182,0.003-0.239c0.041-0.096,0.113-0.254,0.233-0.494   c2.183-4.366,2.287-8.668,2.362-11.809c0.027-1.137,0.058-2.425,0.197-2.979c0.065-0.259,0.119-0.52,0.163-0.782   c0.158-0.947,0.306-1.897,0.454-2.848c0.665-4.275,1.247-8.016,2.76-11.453c1.242-1.657,2.159-3.493,3.05-5.287   C-77.677,297.378-74.409,293.86-70.668,290.687z M-83.612,275.439c-5.234,4.442-9.803,9.43-13.581,14.827   c-0.281,0.401-0.533,0.823-0.752,1.263l-0.329,0.661c-0.345,0.695-0.849,1.71-1.129,2.175c-0.591,0.661-1.092,1.398-1.489,2.193   c-3.241,6.481-4.214,12.738-5.073,18.259c-0.12,0.771-0.24,1.543-0.366,2.313c-0.575,2.539-0.632,4.94-0.679,6.893   c-0.027,1.142-0.069,2.868-0.256,3.345c-1.564,3.129-2.245,5.688-2.337,8.896c-1.111,7.948-1.652,15.065-1.652,21.738l-0.001,1.517   c-0.002,2.863-0.005,5.768,0.073,8.717c-2.795,0.019-5.67,0.094-8.665,0.341c-4.357,0.36-8.815,0.79-14.169,1.325   c-0.422,0.042-0.841,0.111-1.254,0.206c-4.672,1.079-9.275,0.853-13.308-0.656c-4.254-1.593-8.506-4.316-12.052-7.71   c-1.38-1.874-2.778-3.232-3.933-4.355c-0.917-0.891-1.469-1.437-1.858-1.999c-3.641-5.73-6.354-10.527-8.533-15.087   c-2.488-5.206-4.306-9.721-5.091-14.827c-0.015-0.098-0.031-0.195-0.049-0.292c-1.045-5.672-1.924-11.587-2.688-18.086   c-0.223-1.891-0.47-3.775-0.717-5.656c-0.573-4.359-1.114-8.478-1.317-12.518c-0.327-6.466-0.288-12.881-0.207-18.306   c0.096-6.538,0.213-12.431,0.661-18.338c0.29-3.823,0.87-7.726,1.483-11.858c0.315-2.124,0.631-4.255,0.913-6.397   c0.157-1.197,0.311-2.399,0.466-3.604c0.563-4.388,1.143-8.912,1.894-13.33c0.345-0.703,0.709-1.453,1.074-2.204   c0.574-1.181,1.147-2.362,1.633-3.333c2.302-4.606,4.74-8.575,7.454-12.133c1.723-2.259,3.784-4.437,5.966-6.743   c1.36-1.437,2.764-2.92,4.152-4.495l0.704-0.706c2.954-2.965,5.505-5.526,8.286-7.351c3.177-2.085,6.968-4.459,11.063-6.297   c3.617-1.422,7.405-2.144,11.262-2.144c0.332,0,0.664-0.017,0.995-0.05c5.865-0.585,11.892-0.388,18.594-0.09   c3.555,0.159,7.161,0.562,10.979,0.989c2.802,0.313,5.699,0.638,8.638,0.866c6.95,0.541,13.829,0.526,20.497,0.542   c3.293,0.212,6.569,0.521,10.03,0.847c2.851,0.269,5.798,0.547,8.754,0.765c3.153,0.232,6.291,0.367,9.324,0.497   c3.408,0.146,6.626,0.285,9.831,0.549c2.965,0.245,5.934,0.447,8.904,0.649c3.379,0.23,6.873,0.468,10.251,0.768   c2.934,0.26,5.919,0.715,9.079,1.197c3.225,0.491,6.559,1,10.003,1.318c3.43,0.317,6.742,0.454,9.946,0.586   c3.129,0.129,6.084,0.252,9.043,0.529c2.804,0.261,5.585-0.667,7.667-2.562c2.081-1.895,3.268-4.58,3.268-7.394   c0-0.987,0.005-1.972,0.01-2.957c0.021-4.125,0.043-8.391-0.285-12.977c-0.271-3.783-0.672-7.495-1.06-11.084   c-0.171-1.576-0.339-3.135-0.493-4.671c-0.413-4.121-3.323-7.562-7.319-8.651c-6.736-1.837-12.829-2.977-18.625-3.483   c-3.188-0.279-6.283-0.284-9.275-0.289c-2.766-0.004-5.378-0.009-7.897-0.219c-2.401-0.209-4.812-0.438-7.23-0.667   c-3.356-0.318-6.827-0.647-10.298-0.925c-2.452-0.197-4.949-0.518-7.592-0.857c-3.225-0.415-6.56-0.843-10.014-1.063   c-5.63-0.36-11.681-0.725-17.783-0.955c-1.157-0.043-2.303-0.069-3.437-0.082c-0.005-0.293-0.009-0.583-0.009-0.866   c0-0.817-0.1-1.632-0.299-2.425c-0.93-3.72-2.798-6.836-4.299-9.341c-0.477-0.795-1.197-1.998-1.344-2.354   c-0.062-0.186-0.129-0.37-0.202-0.552c-0.361-0.902,0.431-4.469,0.904-6.599c0.277-1.25,0.562-2.533,0.813-3.885   c2.438-6.253,5.295-10.747,9.665-15.214c3.435-2.629,7.416-4.931,12.146-7.024c5.61-2.481,10.198-4.098,14.435-5.089   c5.52-1.291,10.824-2.241,15.768-2.826c4.537-0.466,9.217-0.705,13.745-0.936l2.694-0.139c3.266-0.172,6.592-0.106,10.113-0.036   c2.091,0.041,4.25,0.088,6.437,0.075c5.912-0.028,11.24-0.033,16.58,0.173c2.34,0.092,4.664,0.122,6.91,0.15   c3.394,0.043,6.599,0.085,9.759,0.322l0.893,0.067c5.177,0.389,10.53,0.791,15.844,1.34c5.809,0.581,11.124,1.627,15.798,3.109   c5.115,1.622,10.183,4.362,14.464,6.828c4.506,2.595,9.178,5.485,12.823,9.02c3.518,3.411,6.619,7.504,9.22,12.166   c2.11,3.782,3.698,8.074,4.729,12.775c-0.493,5.438-0.849,11.309-1.083,17.886c-0.085,2.351-0.213,4.682-0.349,7.149   c-0.212,3.871-0.432,7.873-0.468,11.934c-0.025,2.908-0.006,5.831,0.013,8.658c0.021,3.325,0.045,6.764-0.009,10.101   c-0.063,4.006-0.329,8.028-0.611,12.287c-0.135,2.032-0.27,4.068-0.382,6.11c-0.128,2.312-0.189,4.602-0.249,6.815   c-0.105,3.95-0.205,7.68-0.656,11.288c-0.052,0.412-0.077,0.826-0.077,1.241c0,0.683,0.011,1.381,0.023,2.087   c0.021,1.324,0.057,3.417-0.114,4.486c-1.945,1.79-3.114,4.291-3.221,6.959c-0.262,6.548-1.102,11.461-2.644,15.461   c-1.808,4.688-5.158,9.134-8.508,13.239c-3.309,4.051-7.206,7.468-11.585,10.157c-4.2,2.58-8.953,4.392-14.125,5.387   c-0.18,0.035-0.359,0.074-0.537,0.118c-2.207,0.552-4.014,1.349-5.465,1.989c-0.462,0.204-1.048,0.462-1.451,0.616   c-0.167-0.028-0.335-0.051-0.503-0.07c-1.861-0.213-3.719-0.439-5.573-0.666c-3.926-0.479-7.985-0.974-12.078-1.338   c-2.333-0.207-4.661-0.456-6.988-0.703c-3.462-0.369-7.041-0.75-10.661-1.003c-3.399-0.238-6.764-0.342-10.018-0.443   c-2.643-0.082-5.139-0.16-7.639-0.303c-2.614-0.149-5.241-0.401-8.022-0.667c-3.085-0.295-6.277-0.601-9.535-0.766   c-3.226-0.163-6.359-0.129-9.389-0.095c-2.857,0.031-5.554,0.061-8.166-0.072c-2.865-0.146-5.733-0.399-8.77-0.667   c-0.01,0-0.02-0.001-0.03-0.002c-1.482-0.838-3.113-1.426-4.81-1.701c-2.754-0.446-5.476-0.062-7.882,1.069   c-3.021-0.124-6.2-0.044-9.414,0.384c-6.286,0.838-12.717,2.784-19.66,5.946C-72.386,267.068-78.123,270.778-83.612,275.439z"/><path d="M-14.485,89.713c-1.306-0.871-2.747-2.235-4.272-3.679c-4.004-3.79-9.487-8.981-18.054-10.052   c-5.175-0.643-9.957,2.793-11.024,7.854c-0.442,0.538-1.585,1.533-2.369,2.214c-2.448,2.128-5.8,5.043-8.032,9.507   c-1.925,3.85-1.17,8.5,1.873,11.543c4.3,4.3,8.948,7.186,13.482,9.904c1.717,1.553,4.09,2.605,7.093,2.605c0.035,0,0.069,0,0.104,0   c2.242-0.018,4.34-0.781,6.026-2.081c4.442-2.386,7.508-5.619,10.266-8.526c0.206-0.218,0.414-0.437,0.624-0.658   c1.623-0.429,3.845-1.277,5.808-3.239c2.118-2.119,3.175-5.075,2.88-8.057C-10.376,94.066-11.993,91.375-14.485,89.713z"/></g></svg>